<!DOCTYPE svg PUBLIC "-//W3C//DTD SVG 1.1//EN" "http://www.w3.org/Graphics/SVG/1.1/DTD/svg11.dtd">
<!-- Uploaded to: SVG Repo, www.svgrepo.com, Transformed by: SVG Repo Mixer Tools -->
<svg fill="#16a34a" height="171px" width="171px" version="1.1" id="Capa_1" xmlns="http://www.w3.org/2000/svg" xmlns:xlink="http://www.w3.org/1999/xlink" viewBox="0 0 30.001 30.001" xml:space="preserve" stroke="#16a34a">
<g id="SVGRepo_bgCarrier" stroke-width="0"/>
<g id="SVGRepo_tracerCarrier" stroke-linecap="round" stroke-linejoin="round"/>
<g id="SVGRepo_iconCarrier"> <g> <path d="M6.15,9.361l-3.232,3.71c-0.049,0.057-0.119,0.086-0.188,0.086c-0.058,0-0.117-0.02-0.164-0.062 c-0.104-0.091-0.115-0.249-0.024-0.353l3.963-4.548c0.102-0.317,0.194-0.589,0.261-0.756c0.351-0.867,0.974-1.554,1.743-2.001 c-0.384-0.21-0.805-0.319-1.227-0.319c-0.716,0-1.428,0.298-1.936,0.88c-0.93,1.069-6.272,8.949-5.205,9.88 c0.072,0.063,0.172,0.092,0.296,0.092c0.863,0,2.883-1.441,4.779-2.991C5.526,11.648,5.86,10.373,6.15,9.361z"/> <path d="M11.375,5.994c-0.267-0.072-0.536-0.121-0.803-0.121c-1.229,0-2.392,0.733-2.88,1.941 c-0.643,1.59-3.649,12.718-2.059,13.361c0.049,0.02,0.102,0.03,0.158,0.03c1.05,0,3.324-3.344,5.135-6.39 c-0.26-1.85-0.434-3.5-0.497-4.485l-2.658,6.564c-0.059,0.146-0.2,0.234-0.348,0.234c-0.047,0-0.095-0.009-0.141-0.027 c-0.192-0.078-0.285-0.296-0.207-0.488L11.375,5.994z"/> <path d="M24.655,5.998c-0.507-0.582-1.218-0.88-1.935-0.88c-0.422,0-0.844,0.109-1.227,0.32c0.769,0.447,1.392,1.134,1.743,2.001 c0.067,0.166,0.16,0.439,0.262,0.757l3.962,4.547c0.091,0.104,0.08,0.262-0.024,0.353c-0.047,0.042-0.106,0.062-0.164,0.062 c-0.07,0-0.139-0.029-0.188-0.086l-3.232-3.709c0.291,1.012,0.624,2.287,0.935,3.617c1.896,1.55,3.916,2.991,4.779,2.991 c0.124,0,0.224-0.029,0.296-0.092C30.928,14.947,25.586,7.067,24.655,5.998z"/> <path d="M19.429,5.873c-0.267,0-0.537,0.049-0.804,0.121l4.3,10.619c0.078,0.192-0.015,0.411-0.207,0.488 c-0.046,0.019-0.094,0.027-0.141,0.027c-0.148,0-0.289-0.088-0.348-0.234l-2.675-6.606c-0.06,0.975-0.235,2.636-0.496,4.501 c1.813,3.053,4.097,6.416,5.151,6.416c0.056,0,0.109-0.01,0.158-0.03c1.59-0.644-1.415-11.771-2.059-13.361 C21.82,6.606,20.657,5.873,19.429,5.873z"/> <path d="M15.49,6.143V19.37c0,0.276-0.224,0.5-0.5,0.5c-0.276,0-0.5-0.224-0.5-0.5V6.143c-1.743,0.246-3.088,1.728-3.088,3.539 c0,1.981,1.606,15.201,3.588,15.201c1.982,0,3.589-13.22,3.589-15.201C18.579,7.871,17.234,6.388,15.49,6.143z"/> </g> </g>
</svg>